<svg width="29" height="29" viewBox="0 0 29 29" fill="none" xmlns="http://www.w3.org/2000/svg">
<path fill-rule="evenodd" clip-rule="evenodd" d="M21.5044 7.36255C21.0134 6.87729 20.222 6.88194 19.7367 7.37296L14.4647 12.7074L9.13028 7.43543C8.63926 6.95016 7.84781 6.95482 7.36254 7.44584C6.87727 7.93687 6.88193 8.7283 7.37296 9.21358L12.7074 14.4856L7.43542 19.82C6.95014 20.311 6.95481 21.1025 7.44583 21.5877C7.93686 22.073 8.72828 22.0684 9.21357 21.5773L14.4855 16.2429L19.82 21.5149C20.311 22.0001 21.1024 21.9955 21.5877 21.5044C22.073 21.0134 22.0683 20.222 21.5773 19.7367L16.2429 14.4647L21.5148 9.13029C22.0001 8.63927 21.9955 7.84783 21.5044 7.36255Z" fill="white"/>
</svg>
