<svg width="6" height="6" viewBox="0 0 6 6" fill="none" xmlns="http://www.w3.org/2000/svg">
<path fill-rule="evenodd" clip-rule="evenodd" d="M6 3C6 2.7929 5.83211 2.625 5.625 2.625L3.375 2.625L3.375 0.375C3.375 0.167893 3.2071 -1.22081e-07 3 -1.31134e-07C2.79289 -1.40187e-07 2.625 0.167893 2.625 0.375L2.625 2.625L0.375 2.625C0.167888 2.625 -1.22081e-07 2.79289 -1.31134e-07 3C-1.40187e-07 3.20711 0.167888 3.375 0.375 3.375L2.625 3.375L2.625 5.625C2.625 5.83211 2.79289 6 3 6C3.2071 6 3.375 5.83211 3.375 5.625L3.375 3.375L5.625 3.375C5.83211 3.375 6 3.20711 6 3Z" fill="#36393F"/>
</svg>
