<svg width="30" height="30" viewBox="0 0 30 30" fill="none" xmlns="http://www.w3.org/2000/svg">
<path d="M24.2875 16.2188C24.3375 15.8188 24.375 15.4125 24.375 15C24.375 14.5875 24.3375 14.1812 24.2875 13.7812L26.9312 11.7125C27.1687 11.525 27.2375 11.1875 27.0812 10.9125L24.5812 6.58125C24.425 6.3125 24.1 6.2 23.8187 6.3125L20.7062 7.56875C20.0625 7.075 19.3562 6.65625 18.5937 6.3375L18.125 3.025C18.0687 2.73125 17.8125 2.5 17.5 2.5H12.5C12.1875 2.5 11.9312 2.73125 11.8812 3.025L11.4125 6.3375C10.65 6.65625 9.94372 7.06875 9.29997 7.56875L6.18747 6.3125C5.90622 6.20625 5.58122 6.3125 5.42497 6.58125L2.92497 10.9125C2.76872 11.1812 2.83747 11.5188 3.07497 11.7125L5.71247 13.7812C5.66247 14.1812 5.62497 14.5875 5.62497 15C5.62497 15.4125 5.66247 15.8188 5.71247 16.2188L3.07497 18.2875C2.83747 18.475 2.76872 18.8125 2.92497 19.0875L5.42497 23.4188C5.58122 23.6875 5.90622 23.8 6.18747 23.6875L9.29997 22.4312C9.94372 22.925 10.65 23.3438 11.4125 23.6625L11.8812 26.975C11.9312 27.2687 12.1875 27.5 12.5 27.5H17.5C17.8125 27.5 18.0687 27.2687 18.1187 26.975L18.5875 23.6625C19.35 23.3438 20.0562 22.9312 20.7 22.4312L23.8125 23.6875C24.0937 23.7938 24.4187 23.6875 24.575 23.4188L27.075 19.0875C27.2312 18.8188 27.1625 18.4812 26.925 18.2875L24.2875 16.2188ZM15 19.375C12.5812 19.375 10.625 17.4187 10.625 15C10.625 12.5813 12.5812 10.625 15 10.625C17.4187 10.625 19.375 12.5813 19.375 15C19.375 17.4187 17.4187 19.375 15 19.375Z" fill="white"/>
</svg>
