<svg width="22" height="22" viewBox="0 0 22 22" fill="none" xmlns="http://www.w3.org/2000/svg">
<path fill-rule="evenodd" clip-rule="evenodd" d="M12.7517 12.5552C11.1765 14.1303 8.62278 14.1303 7.04766 12.5552C5.47255 10.9801 5.47255 8.42634 7.04766 6.85123C8.62278 5.27611 11.1765 5.27611 12.7517 6.85123C14.3268 8.42634 14.3268 10.9801 12.7517 12.5552ZM13.2361 14.0765C11.0798 15.7258 7.98268 15.5644 6.01057 13.5923C3.86269 11.4444 3.86269 7.96202 6.01057 5.81414C8.15845 3.66625 11.6409 3.66625 13.7887 5.81414C15.7608 7.78616 15.9222 10.8831 14.2731 13.0394L18.1965 16.9627L17.1594 17.9998L13.2361 14.0765Z" fill="#999999"/>
</svg>
